<svg xmlns="http://www.w3.org/2000/svg" xml:space="preserve" width="2000" height="798" data-id="lg_1kY6obVtfeP9qdxv9a" data-version="1"><g data-padding="20"><g transform="translate(10 10)scale(.97494)"><circle cx="77.046" cy="-.203" r="50" fill="#0284c7" transform="translate(400.62 400.62)scale(7.98)"/><circle cx="83.537" cy="-.22" r="50" fill="#fff" transform="translate(399.76 399.76)scale(7.36)"/><circle cx="90.151" cy="-.238" r="50" fill="#0284c7" transform="translate(399.89 399.89)scale(6.82)"/><path fill="#fff" stroke="transparent" stroke-width="1.3" d="M973.43 99.7v37.4l16.5-.55q94.05.55 146.3 35.75t52.25 100.1-41.8 101.48q-41.8 36.57-110.55 36.57-31.35 0-60.5-11.55v81.4q0 64.35-15.95 95.43-15.95 31.07-54.45 31.07-20.9 0-32.45-17.6t-11.55-50.05q0-59.95 62.7-121v-237.6q-24.2 11-39.05 26.13-14.85 15.12-14.85 28.87t3.3 23.65q-3.3 6.6-14.85 6.6t-19.8-8.25-8.25-22q0-25.85 25.85-51.15t67.65-37.95v-20.9q0-16.5 8.25-25.02Q940.43 92 952.53 92t20.9 7.7m58.3 282.15q52.25 0 78.1-27.77 25.85-27.78 25.85-79.75 0-51.98-37.67-81.4-37.68-29.43-107.53-29.43-8.8 0-15.4 1.65v204.6q28.05 12.1 56.65 12.1m-127.05 203.5q11.55 0 15.4-26.95t3.85-114.4q-39.05 47.85-39.05 94.6t19.8 46.75"/><rect width="375" height="621.5" x="427.33" y="-312.37" fill="none" rx="0" ry="0" transform="translate(400.5 400.5)"/></g><path fill="transparent" stroke="transparent" d="M601 0h798v798H601z"/></g></svg>